<?xml version="1.0" standalone="no"?>
<svg xmlns="http://www.w3.org/2000/svg" viewBox="0 0 117.673 36" width="117.673" height="36"><g fill="#ff8686" color="#ff8686" transform="translate(0 5.320754716981131) scale(0.5283019)"><svg width="53.0" height="48.0" x="0.0" y="0.0" viewBox="0 0 53 48"><path fill="currentColor" fill-rule="evenodd" d="M14.18 0L0 8.432v16.864l14.18 8.435L24 27.846v11.72L38.181 48l14.181-8.434V22.704l-14.181-8.433-9.818 5.883V8.432L14.18 0zM4.364 22.814V10.915l9.817-5.84L24 10.915v11.853l-9.819 5.885-9.817-5.839zm23.999 14.27V25.23l9.818-5.884 9.818 5.837v11.9L38.18 42.92l-9.818-5.837z"></path></svg></g><path fill="#fe0b01" fill-rule="nonzero" d="M9.74 1.85L13.06 1.85L13.06 13.08Q13.06 15.86 11.17 17.47Q9.29 19.08 6.53 19.08Q3.77 19.08 1.88 17.47Q0 15.86 0 13.08L0 13.08L0 1.85L3.34 1.85L3.34 12.96Q3.34 14.54 4.21 15.32Q5.09 16.10 6.53 16.10Q7.97 16.10 8.86 15.32Q9.74 14.54 9.74 12.96L9.74 12.96L9.74 1.85ZM16.30 5.74L19.42 5.74L19.42 19.44Q19.42 20.90 18.49 21.96Q17.57 23.02 15.77 23.02L15.77 23.02L13.99 23.02L13.99 20.38L15.19 20.38Q16.30 20.38 16.30 19.25L16.30 19.25L16.30 5.74ZM17.88 0Q19.01 0 19.34 0.35Q19.68 0.70 19.68 1.81Q19.68 2.93 19.33 3.28Q18.98 3.62 17.87 3.62Q16.75 3.62 16.40 3.26Q16.06 2.90 16.06 1.80Q16.06 0.70 16.40 0.35Q16.75 0 17.88 0ZM32.33 5.14L32.33 18.94L30.24 18.94L29.28 17.28L25.94 19.08Q23.16 19.08 22.20 17.06L22.20 17.06Q21.72 16.08 21.54 14.94Q21.36 13.80 21.36 12.56Q21.36 11.33 21.38 10.74Q21.41 10.15 21.50 9.37Q21.60 8.59 21.78 8.06Q21.96 7.54 22.30 6.97Q22.63 6.41 23.11 6.07L23.11 6.07Q24.19 5.33 25.92 5.33L25.92 5.33L29.21 5.33L32.33 5.14ZM26.83 15.79L29.21 14.57L29.21 8.14L26.83 8.14Q25.51 8.14 25.00 9.14Q24.48 10.15 24.48 12.16Q24.48 14.16 24.97 14.98Q25.46 15.79 26.83 15.79L26.83 15.79ZM41.57 16.30L41.57 18.94L39.62 18.94Q37.85 18.94 36.92 17.88Q36 16.82 36 15.36L36 15.36L36 8.16L34.68 8.16L34.68 5.78L36 5.78L36 3.10L39.12 3.10L39.12 5.78L41.33 5.78L41.33 8.16L39.12 8.16L39.12 15.17Q39.12 16.30 40.20 16.30L40.20 16.30L41.57 16.30ZM54.41 5.23L54.41 18.94L52.08 18.94L51.36 17.30L47.52 19.08Q45.91 19.08 44.72 17.89Q43.54 16.70 43.54 14.42L43.54 14.42L43.54 5.23L46.66 5.23L46.66 13.75Q46.66 16.03 48.48 16.03L48.48 16.03L51.29 14.52L51.29 5.23L54.41 5.23ZM63.77 18.96L63.77 18.96L61.06 18.94Q59.26 18.94 58.33 17.88Q57.41 16.82 57.41 15.36L57.41 15.36L57.41 0.89L60.53 0.89L60.53 6.94L64.25 5.21Q66.38 5.21 67.39 6.36L67.39 6.36Q68.28 7.39 68.50 9.70L68.50 9.70Q68.57 10.66 68.57 12.07L68.57 12.07Q68.57 18.96 63.77 18.96ZM61.32 16.27L61.32 16.27L62.86 16.27Q65.45 16.27 65.45 12.07L65.45 12.07Q65.45 9.94 65.05 9.10Q64.66 8.26 63.34 8.26L63.34 8.26L60.53 9.77L60.53 15.17Q60.53 16.13 61.32 16.27ZM81.62 12.82L81.62 12.82L73.63 12.82Q73.63 14.69 74.22 15.55Q74.81 16.42 76.58 16.42L76.58 16.42Q77.74 16.42 78.29 15.68Q78.84 14.95 78.84 14.28L78.84 14.28L81.65 14.28Q81.65 16.85 80.27 18.05Q78.89 19.25 76.62 19.25Q74.35 19.25 73.10 18.60L73.10 18.60Q70.54 17.28 70.54 11.59L70.54 11.59Q70.54 8.21 72.00 6.64Q73.46 5.06 76.46 5.06L76.46 5.06Q81.67 5.06 81.67 10.85L81.67 10.85Q81.67 11.47 81.62 12.82ZM73.70 10.68L73.70 10.68L78.84 10.68Q78.84 9.10 78.24 8.38Q77.64 7.66 76.40 7.66Q75.17 7.66 74.44 8.39Q73.70 9.12 73.70 10.68Z" transform="translate(36, 8.532)"></path></svg>